<svg xmlns="http://www.w3.org/2000/svg" viewBox="0 0 24 24" height="24" width="24" id="Google-Logo--Streamline-Ultimate.svg"><desc>Google Logo Streamline Icon: https://streamlinehq.com</desc><path d="M23.93 10.67a0.76 0.76 0 0 0 -0.75 -0.67H12.75a0.76 0.76 0 0 0 -0.75 0.75v3.5a0.76 0.76 0 0 0 0.75 0.75h5.58A7 7 0 1 1 12 5a7 7 0 0 1 4.23 1.42 0.74 0.74 0 0 0 1 -0.07l2.47 -2.49a0.75 0.75 0 0 0 0.22 -0.57 0.77 0.77 0 0 0 -0.27 -0.54A12 12 0 1 0 24 12a11.85 11.85 0 0 0 -0.07 -1.33Z" fill="#ffffff" stroke-width="1"></path></svg>